<svg width="256" height="256" viewBox="0 0 256 256" fill="none" xmlns="http://www.w3.org/2000/svg">
  <!-- EasyGet App Icon. Custom mark informed by online download icon research from Microsoft Fluent UI System Icons and Tabler Icons; not a direct copy. -->
  <defs>
    <linearGradient id="bg" x1="22" y1="18" x2="232" y2="242" gradientUnits="userSpaceOnUse">
      <stop stop-color="#1D2235"/>
      <stop offset="1" stop-color="#0D111D"/>
    </linearGradient>
    <linearGradient id="plate" x1="45" y1="62" x2="211" y2="165" gradientUnits="userSpaceOnUse">
      <stop stop-color="#222B49"/>
      <stop offset="1" stop-color="#111827"/>
    </linearGradient>
    <linearGradient id="download-arrow" x1="128" y1="76" x2="128" y2="166" gradientUnits="userSpaceOnUse">
      <stop stop-color="#9CC1FF"/>
      <stop offset="1" stop-color="#4F8CFF"/>
    </linearGradient>
    <linearGradient id="tray" x1="74" y1="178" x2="182" y2="194" gradientUnits="userSpaceOnUse">
      <stop stop-color="#3BE3D2"/>
      <stop offset="1" stop-color="#8BE8A8"/>
    </linearGradient>
    <filter id="soft-shadow" x="-20%" y="-20%" width="140%" height="150%" color-interpolation-filters="sRGB">
      <feDropShadow dx="0" dy="10" stdDeviation="10" flood-color="#000000" flood-opacity="0.35"/>
    </filter>
  </defs>
  <rect x="14" y="14" width="228" height="228" rx="54" fill="url(#bg)" stroke="#35405C" stroke-width="2"/>
  <g filter="url(#soft-shadow)">
    <rect x="45" y="62" width="166" height="103" rx="28" fill="url(#plate)" stroke="#475477"/>
    <path d="M85 95V133L119 114L85 95Z" fill="#7F96C6" opacity="0.29"/>
    <rect x="67" y="82" width="122" height="9" rx="5" fill="white" opacity="0.07"/>
  </g>
  <path d="M113 76H143V122H166L128 166L90 122H113V76Z" fill="url(#download-arrow)"/>
  <path d="M121 84V126" stroke="#D7E5FF" stroke-width="3" stroke-linecap="round" opacity="0.3"/>
  <rect x="74" y="178" width="108" height="16" rx="8" fill="url(#tray)"/>
  <rect x="170" y="68" width="18" height="18" rx="9" fill="#3BE3D2" opacity="0.82"/>
  <rect x="183" y="90" width="14" height="14" rx="7" fill="#FFB86B" opacity="0.82"/>
</svg>
